<?xml version="1.0" encoding="utf-8"?>
<!-- Generator: Adobe Illustrator 16.0.0, SVG Export Plug-In . SVG Version: 6.00 Build 0)  -->
<!DOCTYPE svg PUBLIC "-//W3C//DTD SVG 1.1//EN" "http://www.w3.org/Graphics/SVG/1.1/DTD/svg11.dtd" [
        <!ENTITY ns_extend "http://ns.adobe.com/Extensibility/1.0/">
        <!ENTITY ns_ai "http://ns.adobe.com/AdobeIllustrator/10.0/">
        <!ENTITY ns_graphs "http://ns.adobe.com/Graphs/1.0/">
        <!ENTITY ns_vars "http://ns.adobe.com/Variables/1.0/">
        <!ENTITY ns_imrep "http://ns.adobe.com/ImageReplacement/1.0/">
        <!ENTITY ns_sfw "http://ns.adobe.com/SaveForWeb/1.0/">
        <!ENTITY ns_custom "http://ns.adobe.com/GenericCustomNamespace/1.0/">
        <!ENTITY ns_adobe_xpath "http://ns.adobe.com/XPath/1.0/">
        ]>
<svg version="1.1" xmlns:x="&ns_extend;" xmlns:i="&ns_ai;" xmlns:graph="&ns_graphs;"
	 xmlns="http://www.w3.org/2000/svg" xmlns:xlink="http://www.w3.org/1999/xlink" x="0px" y="0px" width="364px" height="172px"
	 viewBox="0 0 364 172" enable-background="new 0 0 364 172" xml:space="preserve">
<metadata>
	<sfw  xmlns="&ns_sfw;">
		<slices></slices>
		<sliceSourceBounds  width="796.171" height="1077.182" y="-1251.152" x="85.829" bottomLeftOrigin="true"></sliceSourceBounds>
	</sfw>
</metadata>
<g id="Layer_2" display="none">
	<rect x="-83" y="-131" display="inline" fill="#172144" width="599" height="303"/>
</g>
<g id="Layer_3">
	<g>
		<path fill="transparent" d="M-277.306,394.766l-0.394,0.585l0.289,0.144l-0.174,0.113l0.265-0.066l0.183,0.091l-0.052,0.21
			l0.929,0.227l138.14,68.996l0.521,0.261l-0.171-0.557c-0.03-0.101-0.072-0.216-0.115-0.331c-0.048-0.128-0.097-0.258-0.127-0.368
			l-0.03-0.108l-133.833-66.814l301.055,73.916l-178.564,120.564l0.187,0.279l-0.18,0.283L6.676,691.363l0.211,0.134l0.042-0.067
			l0.039,0.069l210.228-116.342l-0.012-0.029l154.994-19.851l0.099,0.024l0.009-0.038l0.01-0.001l-0.005-0.018l0.1-0.407
			l0.063-0.008l-0.058-0.015l0.119-0.484l-0.251-0.062l-80.05-259.597l100.835-68.081l-74.462,89.422l-0.096,0.114l0.055,0.139
			c0.07,0.175,0.135,0.351,0.193,0.529l0.14,0.43l76.865-92.308l0.497-0.126l-0.158-0.619l0.135-0.128L240.26,60.807l0.015-0.045
			l-0.312-0.193l-0.06,0.057l-0.562-0.209l-0.12,0.326L65.77,123.834l-1.372,0.5l2.916-0.029l168.516-61.267L-94.735,276.783
			l-97.951-58.064l122.465-44.502l0.064-0.023l1.157-1.422l-125.021,45.367l-0.135,0.049l-0.041-0.018l-0.018,0.04l-0.041,0.014
			l0.015,0.04L-277.306,394.766z M-95.673,277.388l-180.091,116.448l82.13-174.516L-95.673,277.388z M-147.308,592.32l121.34-6.56
			l0.99-0.054l-0.897-0.422c-0.33-0.155-0.7-0.306-1.074-0.455l-0.052-0.02l-120.135,6.503L30.49,471.385l52.18,12.811
			L6.547,690.097L-147.308,592.32z M392.527,225.735l-100.56,67.896l-8.896-40.065L392.527,225.735z M291.335,295.266
			l79.774,258.487L125.417,407.291L291.335,295.266z M108.356,417.604l5.842-15.803l9.352,5.544L108.356,417.604z M155.989,285.881
			L113.676,400.33L-8.736,327.764L155.989,285.881z M106.34,420.172l-23.321,63.08l-51.41-12.623L106.34,420.172z M107.761,419.211
			l16.74-11.302L368.45,553.332L83.998,483.491L107.761,419.211z M114.551,400.848l42.614-115.267l124.937-31.768l8.976,40.42
			l-166.61,112.492L114.551,400.848z M106.935,418.563l-76.637,51.744l-305.06-74.9l264.656-67.293l123.429,73.17L106.935,418.563z
			 M394.893,224.104l-112.039,28.488L240.687,62.701L394.893,224.104z M157.586,284.442l82.039-221.908l42.259,190.304
			L157.586,284.442z M238.594,62.442l-82.185,222.3L-9.954,327.043l-83.821-49.691L238.594,62.442z M-274.753,394.373
			l180.041-116.415l83.388,49.434L-274.753,394.373z M217.078,574.888l-0.082-0.187l-2.887,0.959L9.028,689.215l67.362-81.121
			l0.318-0.383l-1.246-0.064L8.112,688.748l75.536-204.313l286.073,70.238l-152.014,19.358l-0.149,0.02l-0.053,0.14
			c-0.031,0.081-0.097,0.17-0.166,0.265c-0.069,0.093-0.137,0.187-0.185,0.281L217.078,574.888z"/>
		<g>
			<circle fill="#FFFFFF" cx="-148.184" cy="591.808" r="3.21"/>
			<circle fill="#FFFFFF" cx="6.943" cy="690.94" r="3.21"/>
			<circle fill="#FFFFFF" cx="371.908" cy="554.811" r="3.21"/>
			<circle fill="#FFFFFF" cx="395.684" cy="224.209" r="3.21"/>
			<circle fill="#FFFFFF" cx="239.81" cy="61.06" r="3.209"/>
			<circle fill="#FFFFFF" cx="-193.85" cy="218.609" r="3.21"/>
			<circle fill="#FFFFFF" cx="-276.961" cy="395.206" r="3.21"/>
		</g>
	</g>
</g>
<g id="Layer_1">
	<g>
		<polygon fill="#807FFF" points="152.44,10.486 150.15,57.265 115.843,32.196 		"/>
		<g>
			<polygon fill="#4BA59C" points="18.037,51.162 57.01,127.918 194.688,120.717 			"/>
			<polygon fill="#419189" points="18.037,51.162 18.407,153.823 57.01,127.918 			"/>
			<polygon fill="#357D76" points="18.407,153.823 194.688,120.717 55.538,125.017 			"/>
		</g>
		<g>
			<polygon fill="#C73514" points="43.152,110.764 88.401,23.543 106.712,100.877 			"/>
			<polygon fill="#DC4A29" points="88.401,23.543 125.243,74.056 106.712,100.877 			"/>
		</g>
	</g>
</g>
<g id="Layer_4">
	
		<image overflow="visible" width="290" height="233" xlink:href="B9D6902A.jpg"  transform="matrix(0.9999 0 0 0.9999 125.2427 -383.0308)">
	</image>
</g>
</svg>
