<?xml version="1.0" encoding="utf-8"?>
<!-- Generator: Adobe Illustrator 16.0.0, SVG Export Plug-In . SVG Version: 6.00 Build 0)  -->
<!DOCTYPE svg PUBLIC "-//W3C//DTD SVG 1.1//EN" "http://www.w3.org/Graphics/SVG/1.1/DTD/svg11.dtd" [
        <!ENTITY ns_extend "http://ns.adobe.com/Extensibility/1.0/">
        <!ENTITY ns_ai "http://ns.adobe.com/AdobeIllustrator/10.0/">
        <!ENTITY ns_graphs "http://ns.adobe.com/Graphs/1.0/">
        <!ENTITY ns_vars "http://ns.adobe.com/Variables/1.0/">
        <!ENTITY ns_imrep "http://ns.adobe.com/ImageReplacement/1.0/">
        <!ENTITY ns_sfw "http://ns.adobe.com/SaveForWeb/1.0/">
        <!ENTITY ns_custom "http://ns.adobe.com/GenericCustomNamespace/1.0/">
        <!ENTITY ns_adobe_xpath "http://ns.adobe.com/XPath/1.0/">
        ]>
<svg version="1.1" xmlns:x="&ns_extend;" xmlns:i="&ns_ai;" xmlns:graph="&ns_graphs;"
	 xmlns="http://www.w3.org/2000/svg" xmlns:xlink="http://www.w3.org/1999/xlink" x="0px" y="0px" width="256.006px" height="657px"
	 viewBox="0 0 256.006 657" enable-background="new 0 0 256.006 657" xml:space="preserve">
<metadata>
	<sfw  xmlns="&ns_sfw;">
		<slices></slices>
		<sliceSourceBounds  width="774.252" height="657" y="-781" x="-155.252" bottomLeftOrigin="true"></sliceSourceBounds>
	</sfw>
</metadata>
<g id="Layer_2" display="none">
	<rect x="-0.046" display="inline" fill="#1BCCA0" width="336" height="657"/>
</g>
<g id="Layer_3">
	<g>
		<path fill="transparent" d="M253.087,378.989l0.459-0.536l-0.271-0.176l0.187-0.093l-0.271,0.036l-0.172-0.111l0.076-0.203
			l-0.896-0.333l-129.255-84.476l-0.487-0.319l0.106,0.572c0.018,0.104,0.046,0.223,0.075,0.342c0.033,0.132,0.067,0.267,0.084,0.38
			l0.018,0.111l125.229,81.812L-42.545,267.834l191.284-99.153l-0.153-0.299l0.212-0.261L5.23,51.602l-0.193-0.157l-0.05,0.062
			l-0.031-0.073l-222.248,91.304l0.008,0.031l-156.25,1.832l-0.096-0.036l-0.012,0.037l-0.01,0l0.001,0.018l-0.146,0.393l-0.063,0
			l0.055,0.021l-0.174,0.467l0.244,0.09l49.557,267.1l-108.017,55.99l84.283-80.231l0.108-0.103l-0.038-0.144
			c-0.05-0.182-0.094-0.364-0.131-0.548l-0.088-0.442l-87.004,82.821l-0.509,0.067l0.085,0.633l-0.148,0.111l136.08,180.145
			l-0.021,0.043l0.288,0.229l0.065-0.05l0.535,0.272l0.156-0.31l179.575-42.654l1.42-0.339l-2.9-0.307l-174.46,41.41l353.022-174.17
			l90.596,68.98L21.935,574.167l-0.066,0.017l-1.313,1.278l129.421-30.637l0.139-0.033l0.039,0.022l0.022-0.038l0.042-0.009
			l-0.01-0.041L253.087,378.989z M59.124,474.623l192.325-94.888L149.728,543.606L59.124,474.623z M146.755,167.753l-121.286-7.487
			l-0.989-0.061l0.842,0.522c0.31,0.192,0.66,0.384,1.014,0.576l0.05,0.025l120.083,7.404l-190.278,98.63l-50.354-18.747
			L5.211,52.875L146.755,167.753z M-431.776,469.592l107.722-55.838l4.214,40.824L-431.776,469.592z M-323.237,412.204
			l-49.411-265.966L-145.5,320.074L-323.237,412.204z M-127.362,311.798l-7.627,15.023l-8.649-6.586L-127.362,311.798z
			 M-189.877,437.145l55.238-108.801l113.22,86.208L-189.877,437.145z M-125.063,309.48l30.444-59.968l49.61,18.472L-125.063,309.48
			z M-126.586,310.271l-17.933,9.294l-225.538-172.603l274.493,102.2L-126.586,310.271z M-135.449,327.728l-55.632,109.579
			l-127.767,17.138l-4.252-41.186l178.48-92.514L-135.449,327.728z M-125.84,311.01l82.097-42.555L250.635,378.06l-270.654,36.302
			l-114.161-86.925L-125.84,311.01z M-434.314,470.94l114.578-15.369l19.971,193.488L-434.314,470.94z M-191.63,438.389
			l-107.098,210.958l-20.017-193.909L-191.63,438.389z M-297.715,649.558l107.288-211.33l170.133-22.82l77.526,59.032
			L-297.715,649.558z M250.506,379.084L58.234,473.945l-77.126-58.726L250.506,379.084z M-217.207,143.019l0.06,0.195l2.978-0.62
			L2.646,53.465l-76.273,72.805l-0.36,0.344l1.23,0.208L3.501,54.034l-98.608,194.23l-276.056-102.781l153.232-1.687l0.15-0.002
			l0.068-0.132c0.041-0.077,0.117-0.158,0.195-0.244c0.081-0.084,0.158-0.17,0.217-0.258L-217.207,143.019z"/>
		<g>
			<circle fill="#FFFFFF" cx="147.567" cy="168.363" r="3.21"/>
			<circle fill="#FFFFFF" cx="4.916" cy="51.991" r="3.21"/>
			<circle fill="#FFFFFF" cx="-373.321" cy="145.095" r="3.21"/>
			<circle fill="#FFFFFF" cx="-435.088" cy="470.744" r="3.21"/>
			<circle fill="#FFFFFF" cx="-299.083" cy="650.791" r="3.209"/>
			<circle fill="#FFFFFF" cx="149.86" cy="544.338" r="3.21"/>
			<circle fill="#FFFFFF" cx="252.796" cy="378.512" r="3.21"/>
		</g>
	</g>
	<g>
		<g>
			<polygon fill="#357D76" points="-11.08,146.792 169.399,105.003 80.861,225.874 			"/>
			<polygon fill="#4BA59C" points="169.399,105.003 142.004,219.649 80.861,225.874 			"/>
		</g>
		<g>
			<polygon fill="#807FFF" points="150.356,178.035 79.16,260.421 100.862,270.694 			"/>
			<polygon fill="#6A6ACC" points="150.356,178.035 123.649,312.632 100.862,270.694 			"/>
			<polygon fill="#464689" points="79.16,260.421 123.649,312.632 100.862,270.694 			"/>
		</g>
		<g>
			<polygon fill="#B84B2B" points="172.196,312.052 203.062,204.225 178.331,204.023 			"/>
			<polygon fill="#A43717" points="172.196,312.052 138.875,174.695 178.331,204.023 			"/>
			<polygon fill="#8F2202" points="203.062,204.225 138.875,174.695 178.331,204.023 			"/>
		</g>
		<g>
			<polygon fill="#DC4A29" points="25.126,226.658 71.459,226.658 40.744,285.223 			"/>
			<polygon fill="#C73514" points="71.459,226.658 -1.945,207.524 25.126,226.658 			"/>
			<polygon fill="#F05E3D" points="-1.945,207.524 40.744,285.223 25.126,226.658 			"/>
		</g>
		<polygon fill="#BF9DC1" points="86.711,92.506 117.12,85.517 112.477,134.961 		"/>
		<g>
			<polygon fill="#F05E3D" points="43.996,84.127 43.996,170.209 170.015,226.121 			"/>
			<polygon fill="#DC4A29" points="43.996,84.127 -2.152,175.832 43.996,170.209 			"/>
			<polygon fill="#AC301F" points="-2.152,175.832 170.015,226.121 43.996,166.957 			"/>
		</g>
		<g>
			<polygon fill="#4BA59C" points="125.946,73.307 2.41,10.836 2.41,76.15 			"/>
			<polygon fill="#419189" points="125.946,73.307 -27.387,123.736 2.41,76.15 			"/>
			<polygon fill="#35726A" points="2.41,10.836 -27.387,123.736 2.41,76.15 			"/>
		</g>
	</g>
	<g>
		<polygon fill="#357D76" points="90.42,422.852 75.853,378.005 133.336,402.66 		"/>
		<polygon fill="#419189" points="75.853,378.005 79.462,446.363 90.42,422.852 		"/>
		<polygon fill="#4BA59C" points="79.462,446.363 133.336,402.66 90.42,422.852 		"/>
	</g>
	<g>
		<polygon fill="#DC4A29" points="29.659,368.248 -4.305,359.199 29.648,322.267 		"/>
		<polygon fill="#F05E3D" points="-4.305,359.199 45.766,387.56 29.659,368.248 		"/>
		<polygon fill="#C73514" points="45.766,387.56 29.648,322.267 29.659,368.248 		"/>
	</g>
	<g>
		<polygon fill="#4BA59C" points="5.058,309.345 60.831,293.883 27.519,363.052 		"/>
		<polygon fill="#367D76" points="60.831,293.883 -23.187,294.648 5.058,309.345 		"/>
		<polygon fill="#419189" points="-23.187,294.648 27.519,363.052 5.058,309.345 		"/>
	</g>
	<g>
		<polygon fill="#BF9DC1" points="36.306,623.692 25.249,546.603 -4.855,567.672 		"/>
		<polygon fill="#7E677F" points="36.306,623.692 -36.399,569.288 -4.855,567.672 		"/>
		<polygon fill="#4B3C4C" points="25.249,546.603 -36.399,569.288 -4.855,567.672 		"/>
	</g>
</g>
<g id="Layer_1">
</g>
</svg>
