<?xml version="1.0" encoding="utf-8"?>
<!-- Generator: Adobe Illustrator 16.0.0, SVG Export Plug-In . SVG Version: 6.00 Build 0)  -->
<!DOCTYPE svg PUBLIC "-//W3C//DTD SVG 1.1//EN" "http://www.w3.org/Graphics/SVG/1.1/DTD/svg11.dtd" [
        <!ENTITY ns_extend "http://ns.adobe.com/Extensibility/1.0/">
        <!ENTITY ns_ai "http://ns.adobe.com/AdobeIllustrator/10.0/">
        <!ENTITY ns_graphs "http://ns.adobe.com/Graphs/1.0/">
        <!ENTITY ns_vars "http://ns.adobe.com/Variables/1.0/">
        <!ENTITY ns_imrep "http://ns.adobe.com/ImageReplacement/1.0/">
        <!ENTITY ns_sfw "http://ns.adobe.com/SaveForWeb/1.0/">
        <!ENTITY ns_custom "http://ns.adobe.com/GenericCustomNamespace/1.0/">
        <!ENTITY ns_adobe_xpath "http://ns.adobe.com/XPath/1.0/">
        ]>
<svg version="1.1" xmlns:x="&ns_extend;" xmlns:i="&ns_ai;" xmlns:graph="&ns_graphs;"
	 xmlns="http://www.w3.org/2000/svg" xmlns:xlink="http://www.w3.org/1999/xlink" x="0px" y="0px" width="478px" height="601px"
	 viewBox="0 0 478 601" enable-background="new 0 0 478 601" xml:space="preserve">
<metadata>
	<sfw  xmlns="&ns_sfw;">
		<slices></slices>
		<sliceSourceBounds  width="883.42" height="743.255" y="-867.255" x="109" bottomLeftOrigin="true"></sliceSourceBounds>
	</sfw>
</metadata>
<g id="Layer_2" display="none">
	<rect x="-32" y="-56" display="inline" fill="#B6EA5C" width="510" height="657"/>
</g>
<g id="Layer_3">
	<g>
		<path fill="transparent" d="M848.502,412.244l0.459-0.536l-0.271-0.176l0.188-0.093l-0.271,0.036l-0.172-0.111l0.076-0.203
			l-0.896-0.333l-129.254-84.476l-0.488-0.319l0.107,0.572c0.018,0.104,0.045,0.223,0.074,0.342c0.033,0.132,0.068,0.267,0.084,0.38
			l0.018,0.111l125.229,81.812L552.869,301.089l191.285-99.153L744,201.637l0.213-0.261L600.645,84.857l-0.193-0.157l-0.049,0.062
			l-0.031-0.073l-222.248,91.304l0.008,0.031l-156.25,1.832l-0.096-0.036l-0.012,0.037l-0.01,0l0.001,0.018l-0.146,0.393l-0.063,0
			l0.055,0.021l-0.174,0.467l0.244,0.09l49.557,267.1L163.22,501.936l84.283-80.231l0.108-0.103l-0.038-0.144
			c-0.05-0.182-0.094-0.364-0.131-0.548l-0.088-0.442l-87.004,82.821l-0.509,0.067l0.085,0.633l-0.148,0.111l136.08,180.146
			l-0.021,0.043l0.288,0.229l0.065-0.05l0.535,0.272l0.156-0.31l179.575-42.654l1.421-0.339l-2.9-0.307l-174.46,41.41
			l353.023-174.171l90.596,68.98L617.35,607.422l-0.066,0.017l-1.313,1.278l129.422-30.637l0.139-0.033l0.039,0.022l0.021-0.038
			l0.043-0.009l-0.01-0.041L848.502,412.244z M654.539,507.878l192.324-94.888L745.143,576.861L654.539,507.878z M742.17,201.008
			l-121.285-7.487l-0.99-0.061l0.842,0.522c0.311,0.192,0.66,0.384,1.014,0.576l0.051,0.025l120.082,7.404l-190.277,98.63
			l-50.354-18.747L600.627,86.13L742.17,201.008z M163.639,502.848l107.722-55.839l4.214,40.824L163.639,502.848z M272.178,445.459
			l-49.411-265.966l227.149,173.836L272.178,445.459z M468.053,345.053l-7.627,15.023l-8.649-6.586L468.053,345.053z
			 M405.537,470.399l55.238-108.801l113.221,86.208L405.537,470.399z M470.353,342.735l30.444-59.968l49.609,18.472L470.353,342.735
			z M468.829,343.526l-17.933,9.294L225.359,180.217l274.493,102.2L468.829,343.526z M459.967,360.983l-55.633,109.579
			l-127.767,17.138l-4.252-41.186L450.795,354L459.967,360.983z M469.574,344.265l82.098-42.555l294.379,109.604l-270.654,36.302
			l-114.162-86.925L469.574,344.265z M161.101,504.195l114.578-15.369l19.971,193.488L161.101,504.195z M403.785,471.645
			L296.687,682.603L276.67,488.693L403.785,471.645z M297.7,682.813l107.288-211.33l170.133-22.82l77.527,59.032L297.7,682.813z
			 M845.922,412.339L653.648,507.2l-77.125-58.726L845.922,412.339z M378.208,176.274l0.06,0.195l2.979-0.62L598.061,86.72
			l-76.272,72.805l-0.36,0.344l1.23,0.208l76.258-72.788l-98.607,194.23L224.252,178.738l153.232-1.687l0.15-0.002l0.068-0.132
			c0.04-0.077,0.116-0.158,0.195-0.244c0.08-0.084,0.157-0.17,0.217-0.258L378.208,176.274z"/>
		<g>
			<circle fill="#FFFFFF" cx="742.981" cy="201.618" r="3.21"/>
			<circle fill="#FFFFFF" cx="600.331" cy="85.246" r="3.21"/>
			<circle fill="#FFFFFF" cx="222.094" cy="178.35" r="3.21"/>
			<circle fill="#FFFFFF" cx="160.327" cy="503.999" r="3.21"/>
			<circle fill="#FFFFFF" cx="296.332" cy="684.045" r="3.209"/>
			<path fill="#FFFFFF" d="M748.484,577.545c0.027,1.774-1.387,3.232-3.16,3.259c-1.773,0.025-3.232-1.391-3.258-3.163
				c-0.025-1.773,1.391-3.232,3.162-3.26C747.004,574.356,748.459,575.772,748.484,577.545z"/>
			<circle fill="#FFFFFF" cx="848.211" cy="411.767" r="3.209"/>
		</g>
	</g>
	<g>
		<g>
			<polygon fill="#4BA59C" points="81.477,71.414 93.38,142.886 154.778,101.935 			"/>
			<polygon fill="#4BA59C" points="93.38,142.886 51.465,199.108 145.892,145.062 			"/>
			<polygon fill="#419189" points="145.892,145.062 154.778,101.935 93.38,142.886 			"/>
		</g>
		<polygon fill="#357D76" points="81.477,71.414 51.465,199.108 93.38,142.886 		"/>
	</g>
	<polygon fill="#DC4A29" points="56.487,108.009 49.209,139.179 5.748,112.595 	"/>
	<polygon fill="#419189" points="405.652,64.466 449.77,80.186 439.678,38.912 	"/>
	<g>
		<polygon fill="#A43717" points="416.518,99.798 395.346,25.831 412.311,25.692 		"/>
		<polygon fill="#B84B2B" points="416.518,99.798 439.375,5.574 412.311,25.692 		"/>
		<polygon fill="#8F2202" points="395.346,25.831 439.375,5.574 412.311,25.692 		"/>
	</g>
	<polygon fill="#DC4A29" points="453.723,39.813 448.727,71.429 499,63.168 	"/>
	<polygon fill="#8D708E" points="347.813,163.204 371.034,203.875 390.274,165.992 	"/>
	<g>
		<polygon fill="#419189" points="438.042,119.503 380.7,127.356 438.649,177.714 		"/>
		<polygon fill="#357D76" points="380.7,127.356 458.173,94.835 438.042,119.503 		"/>
		<polygon fill="#4BA59C" points="458.173,94.835 438.649,177.714 438.042,119.503 		"/>
	</g>
	<polygon fill="#E74C3C" points="379.044,236.506 347.577,250.903 377.021,278.173 	"/>
	<polygon fill="#807FFF" points="411.208,259.954 454.065,281.855 399.542,335.666 	"/>
	<g>
		<polygon fill="#357D76" points="545.932,303.462 505.281,450.347 452.662,338.88 		"/>
		<polygon fill="#4BA59C" points="505.281,450.347 433.153,385.528 452.662,338.88 		"/>
	</g>
	<polygon fill="#E74C3C" points="336.414,370.271 379.897,339.893 406.225,377.578 	"/>
	<g>
		<polygon fill="#4BA59C" points="496.069,148.622 496.069,234.705 370.05,290.616 		"/>
		<polygon fill="#31726A" points="496.069,148.622 542.218,240.327 496.069,234.705 		"/>
		<polygon fill="#357D76" points="542.218,240.327 370.05,290.616 496.069,231.452 		"/>
	</g>
	<g>
		<polygon fill="#C73514" points="500.659,213.135 420.825,155.853 439.511,233.096 		"/>
		<polygon fill="#DC4A29" points="420.825,155.853 410.845,217.571 439.511,233.096 		"/>
	</g>
	<g>
		<g>
			<g>
				<polygon fill="#9B59B6" points="285.858,470 464.912,443.125 369.374,554.104 				"/>
			</g>
			<g>
				<polygon fill="#7F4D96" points="464.912,443.125 429.429,552.727 369.374,554.104 				"/>
			</g>
		</g>
	</g>
	<g>
		<polygon fill="#F05E3D" points="329.246,491.886 371.264,391.432 390.132,406.281 		"/>
		<polygon fill="#DC4A29" points="329.246,491.886 437.831,407.987 390.132,406.281 		"/>
		<polygon fill="#C73514" points="371.264,391.432 437.831,407.987 390.132,406.281 		"/>
	</g>
	<g>
		<polygon fill="#BF9DC1" points="277.478,369.979 395.97,536.665 314.542,545.656 		"/>
		<polygon fill="#8D708E" points="277.478,369.979 257.145,603.628 314.542,545.656 		"/>
		<polygon fill="#4B3C4C" points="395.97,536.665 257.145,603.628 314.542,545.656 		"/>
	</g>
	<polygon fill="#DC4A29" points="272.498,495.84 285.989,458.761 223.213,456.913 	"/>
	<g>
		<polygon fill="#357D76" points="220.636,447.433 185.987,396.209 267.384,406.397 		"/>
		<polygon fill="#419189" points="185.987,396.209 215.368,481.043 220.636,447.433 		"/>
		<polygon fill="#4BA59C" points="215.368,481.043 267.384,406.397 220.636,447.433 		"/>
	</g>
</g>
<g id="Layer_1">
</g>
</svg>
